<svg xmlns="http://www.w3.org/2000/svg" width="903.05969" height="199.99997" viewBox="0 0 903.05969 199.99996"><path d="M1004.99 367.053v-14.374h6.255v-6.959h-6.254v-13.24h-9.161v34.573zm-33.427-45.21c-2.23-1.138-3.34-2.573-3.34-4.302 0-1.644 1.11-3.039 3.34-4.178q3.839-1.963 10.586-1.961c4.663 0 8.317.651 10.956 1.961q3.53 1.711 3.53 4.178 0 2.595-3.53 4.303-3.96 1.966-10.956 1.966-6.813 0-10.586-1.966m-5.573 19.822h12.88v10.318h-12.88zm34.174-15.073c3.837-2.45 5.756-5.464 5.756-9.052q-.001-5.318-5.756-8.927-6.5-4.115-17.64-4.115c-7.517 0-13.415 1.371-17.708 4.115q-5.698 3.61-5.697 8.927-.001 5.445 5.697 9.052c4.293 2.744 10.191 4.117 17.708 4.117q11.14 0 17.64-4.117m-34.174 39.955v-7.852h12.88v7.852h9.098v-31.599H964.69q-4.083.001-5.942 1.585-1.86 1.642-1.859 5.193v24.82zM1026.2 358.568q-2.045-1.965-2.044-5.063c0-2.025.68-3.718 2.044-5.064 1.485-1.52 3.573-2.283 6.253-2.283 2.683 0 4.784.763 6.313 2.283q2.044 1.959 2.044 5.064.001 3.098-2.044 5.063c-1.53 1.48-3.63 2.215-6.313 2.215-2.68 0-4.768-.734-6.253-2.215m19.378 4.559c2.93-2.578 4.393-5.803 4.393-9.69q.001-5.754-4.393-9.623-4.831-4.303-13.186-4.305c-5.573 0-9.951 1.437-13.124 4.305-2.89 2.578-4.335 5.788-4.335 9.622 0 3.888 1.444 7.113 4.335 9.69 3.173 2.83 7.551 4.245 13.124 4.245 5.569 0 9.967-1.415 13.186-4.244m10.71-27.86v31.787h9.162v-60.912h-9.162v22.347h-18.017v-21.147h-9.161v21.147h-15.355v6.778zM1124.169 367.053v-18.547h6.317v-7.22h-6.317v-18.428h-9.162v44.195zm-35.906-53.436h36.276v-6.842h-37.328q-4.397.002-6.312 1.583c-1.2 1.061-1.798 2.766-1.798 5.13v13.234h9.162zm12.878 32.479q3.713-5.886 10.708-9.122l-4.393-5.313c-3.59 1.898-6.83 4.15-9.722 6.771-2.969 2.705-5.013 5.273-6.127 7.727-1.28-2.454-3.405-5.022-6.379-7.727a48.5 48.5 0 0 0-9.47-6.646l-3.776 5.127c4.295 2.41 7.634 5.468 10.027 9.183 3.349 5.273 5.015 12.09 5.015 20.452h9.224c0-8.486 1.634-15.3 4.893-20.452M1147.854 313.55h27.606v5.827h-27.606zm-2.6 44.26q-1.794-2.537-1.795-6.902c0-2.874.6-5.15 1.795-6.842 1.4-1.94 3.468-2.91 6.193-2.91q4.025 0 6.122 2.91c1.244 1.693 1.86 3.968 1.86 6.842 0 2.91-.616 5.212-1.86 6.902-1.398 1.895-3.44 2.85-6.122 2.85-2.725 0-4.793-.955-6.193-2.85m2.6-27.35v-4.31h27.608v4.31h9.161v-23.746h-39.928c-1.82 0-3.28.629-4.395 1.9q-1.61 1.893-1.61 5.002v16.845zm14.798 7.342q-4.403-3.358-11.205-3.358-8.481 0-13.067 5.002-4.145 4.494-4.146 11.462 0 7.03 4.146 11.524c3.057 3.29 7.413 4.94 13.067 4.94 5.158 0 9.26-1.415 12.315-4.244 2.724-2.579 4.315-5.974 4.768-10.196h6.932v14.12h9.161V332.48h-9.16v13.425h-7.491c-.905-3.415-2.681-6.12-5.32-8.103M1208.742 322.415q-3.779-1.837-3.778-4.498-.001-2.655 3.778-4.493 4.144-2.024 11.205-2.024 6.994-.001 11.266 2.024c2.6 1.269 3.898 2.764 3.898 4.493q.001 2.662-3.898 4.498c-2.849 1.349-6.602 2.03-11.266 2.03-4.707 0-8.442-.681-11.205-2.03m29.345 4.749c4.127-2.534 6.188-5.612 6.188-9.247q.001-5.377-6.188-9.178c-4.54-2.827-10.591-4.242-18.14-4.242q-11.39 0-18.142 4.242-6.065 3.8-6.064 9.178c0 3.635 2.02 6.713 6.064 9.247 4.542 2.788 10.59 4.178 18.142 4.178 7.549 0 13.6-1.39 18.14-4.178m8.66 7.851h-53.603v6.837h17.637V352.3h9.166v-10.447h13.125c.495 1.854.866 3.99 1.114 6.393q.37 3.23.371 7.159v3.478h-38.382v6.903h47.543v-6.522c0-2.91-.144-5.869-.434-8.864q-.429-5.126-1.239-8.547h4.703zM1304.735 306.143h-9.162v60.911h9.162zm-13.874 60.91v-60.91h-9.161v32.354h-8.108v6.771h8.108v21.784zm-13.43-1.267v-6.707h-7.554V341.09q.001-8.099 3.28-14.94a30.9 30.9 0 0 1 8.357-10.448l-5.383-5.125c-3.015 2.49-5.424 5.022-7.242 7.593-1.734 2.498-2.934 5.046-3.595 7.666a31 31 0 0 0-3.897-7.98c-1.976-2.781-4.393-5.21-7.242-7.279l-4.334 5.125c3.344 2.536 5.963 5.951 7.86 10.263 2.025 4.51 3.035 9.513 3.035 15v18.114h-7.68v6.707zM1334.913 317.222v15.77h9.166v-15.77h21.852v-6.712h-53.614v6.712zm27.796 48.563v-6.964h-19.064q-.001-8.99 6.437-15.198 5.76-5.637 15.973-8.222l-3.897-5.578q-9.17 2.66-14.12 5.827c-3.959 2.49-6.957 5.734-8.976 9.751-2.025-4.053-5.034-7.302-9.037-9.751q-5.016-3.108-14.425-5.827l-3.34 5.637c6.808 1.936 12.111 4.705 15.906 8.297 4.293 4.088 6.437 9.113 6.437 15.064h-19.064v6.964zM1422.11 367.053v-14.374h6.255v-6.959h-6.254v-13.24h-9.161v34.573zm-35.9-53.505h26.74v4.564h-26.74zm-3.405 37.297c-1.369-1.227-2.044-2.744-2.044-4.559 0-1.734.675-3.27 2.044-4.62 1.605-1.52 3.734-2.283 6.373-2.283s4.783.764 6.437 2.283c1.446 1.35 2.166 2.886 2.166 4.62 0 1.815-.72 3.332-2.166 4.559-1.605 1.392-3.754 2.088-6.437 2.088-2.688 0-4.807-.696-6.373-2.088m3.405-21.784v-4.112h26.74v4.112h9.16v-22.347h-38.69q-2.975 0-4.703 1.71-1.673 1.583-1.674 4.178v16.46zm-1.43 34.384v3.927h9.166v-3.927h12.63v-6.459h-9.41q5.882-1.587 8.295-5.444c1.481-2.368 1.86-5.173 1.115-8.424-.83-2.83-2.663-5.169-5.512-7.025-3.215-2.117-7.179-3.164-11.886-3.164-4.744 0-8.732 1.076-11.947 3.23q-4.21 2.843-5.388 6.959-1.176 4.873.995 8.424c1.61 2.571 4.369 4.386 8.293 5.444h-9.346v6.46zM969.419 287.153l-5.844-8.89 6.844-11.813h-4.12l-4.822 8.917-1.153-2.305v-6.612h-3.435v20.703h3.435v-7.966l4.875 7.966zM980.8 277.53c0 1.37-.225 2.344-.676 2.905-.42.515-1.144.778-2.158.778-1.105 0-1.874-.249-2.32-.754-.43-.52-.649-1.414-.649-2.7v-5.937c0-1.144.22-1.939.65-2.373.445-.446 1.214-.68 2.319-.68 1.053 0 1.78.244 2.18.71.43.49.654 1.404.654 2.719zm3.434-4.569q.001-3.142-1.276-4.792c-1.02-1.3-2.678-1.95-4.997-1.95-2.378 0-4.069.579-5.044 1.698-.903 1.037-1.354 2.72-1.354 5.074v4.234q0 3.047 1.354 4.668c1.066 1.25 2.749 1.869 5.044 1.869q3.072-.001 4.702-1.715c1.047-1.083 1.571-2.602 1.571-4.542zM991.233 283.466l-.23-2.25c.435.93.879 1.55 1.3 1.85.62.424 1.664.666 3.128.695v-3.044c-1.088 0-1.944-.086-2.569-.249-.595-.176-1.02-.412-1.305-.746q-.371-.429-.5-1.2c-.053-.3-.078-.83-.078-1.578v-10.467h-3.43v16.989zM1006.625 277.177v.75q0 1.455-.749 2.329c-.532.641-1.27.956-2.224.956-.915 0-1.64-.28-2.176-.856-.493-.583-.74-1.364-.74-2.354v-.825zm3.393-2.42h-9.281v-2.638c0-1.025.266-1.834.82-2.44.534-.6 1.248-.91 2.148-.91.851 0 1.55.252 2.095.725.55.471.825 1.027.825 1.68v1.325h3.393v-1.205c0-1.563-.51-2.797-1.53-3.688-1.058-.924-2.622-1.385-4.668-1.385-2.234 0-3.878.546-4.947 1.649-1.046 1.056-1.575 2.649-1.575 4.8v4.773c0 1.888.534 3.378 1.595 4.498 1.149 1.21 2.744 1.82 4.778 1.82 2.144 0 3.759-.59 4.817-1.786q1.53-1.7 1.53-5.146zM1018.601 274.18c-.66-.338-1.163-.665-1.5-1.004a2.35 2.35 0 0 1-.573-.976c-.06-.249-.095-.614-.095-1.102l-.022-.142c0-.888.09-1.453.295-1.702.28-.38.966-.576 2.047-.576.792 0 1.458.234 1.973.676q.72.604.72 1.497v4.474c-1.196-.415-2.15-.795-2.845-1.144m-2.204 3.405h-3.35v1.202c0 1.634.462 2.85 1.367 3.664q1.443 1.311 4.507 1.31 3.53.002 4.844-1.369 1.073-1.15 1.073-3.895v-12.005h-3.232v1.024a4.16 4.16 0 0 0-1.841-1.078c-.549-.141-1.383-.22-2.507-.22q-1.89 0-3.09 1.15c-.74.719-1.12 1.585-1.12 2.6v1.397q-.001 1.554.92 2.624c.514.62 1.304 1.186 2.36 1.696.61.32 1.23.605 1.834.853.379.147.835.33 1.403.53q1.162.419 1.46.695c.281.227.42.614.42 1.151 0 .863-.148 1.454-.465 1.773-.335.354-.974.525-1.925.525-.958 0-1.639-.14-2.044-.4-.414-.3-.614-.82-.614-1.544zM1039.953 269.198q2.496 0 3.393.07c.841.081 1.446.225 1.82.445.356.219.604.59.714 1.129q.157.598.156 2.149v8.558c0 .854-.05 1.44-.156 1.779-.13.4-.378.69-.744.895-.38.17-.985.275-1.82.324-.6.04-1.714.046-3.363.046zm-3.478 17.954h6.261c2.62 0 4.43-.32 5.405-.951q1.373-.93 1.373-3.369v-11.324c0-1.85-.475-3.154-1.444-3.905-1-.764-2.79-1.154-5.393-1.154h-6.202zM1062.02 277.177v.75q.001 1.455-.755 2.329c-.522.641-1.26.956-2.22.956-.919 0-1.643-.28-2.17-.856-.505-.583-.754-1.364-.754-2.354v-.825zm3.387-2.42h-9.286v-2.638c0-1.025.276-1.834.825-2.44.539-.6 1.254-.91 2.154-.91.841 0 1.548.252 2.095.725.553.471.824 1.027.824 1.68v1.325h3.388v-1.205c0-1.563-.51-2.797-1.52-3.688-1.068-.924-2.634-1.385-4.678-1.385-2.23 0-3.878.546-4.951 1.649-1.042 1.056-1.566 2.649-1.566 4.8v4.773c0 1.888.53 3.378 1.595 4.498 1.154 1.21 2.734 1.82 4.769 1.82 2.153 0 3.763-.59 4.831-1.786 1.01-1.134 1.52-2.849 1.52-5.146zM1069.403 266.478v13.39h-1.8v2.413h1.8v1.07c0 1.254.315 2.205.93 2.85.62.67 1.539.994 2.748.994h.415c.29-.014.566-.024.815-.024.414-.012.924-.027 1.505-.027v-2.593l-1.995-.075c-.42 0-.693-.076-.808-.225-.112-.166-.175-.524-.175-1.07v-.9h2.978v-2.413h-2.978v-13.39zM1087.068 277.177v.75q-.002 1.455-.754 2.329c-.532.641-1.266.956-2.22.956-.92 0-1.643-.28-2.175-.856-.495-.583-.754-1.364-.754-2.354v-.825zm3.388-2.42h-9.29v-2.638c0-1.025.284-1.834.833-2.44.534-.6 1.25-.91 2.144-.91.856 0 1.554.252 2.1.725.55.471.825 1.027.825 1.68v1.325h3.388v-1.205c0-1.563-.51-2.797-1.525-3.688-1.068-.924-2.622-1.385-4.673-1.385-2.225 0-3.878.546-4.947 1.649-1.046 1.056-1.575 2.649-1.575 4.8v4.773c0 1.888.534 3.378 1.6 4.498 1.149 1.21 2.739 1.82 4.773 1.82 2.144 0 3.754-.59 4.822-1.786q1.524-1.7 1.525-5.146zM1097.02 283.466v-1.576c.475.717.914 1.19 1.319 1.432q.822.44 2.544.439c1.7 0 2.915-.34 3.659-1.02q1.013-.957 1.014-3.114v-13.15h-3.434v12.115c0 .9-.134 1.51-.4 1.854-.349.476-1.025.724-2.015.724-1.068 0-1.778-.182-2.139-.529-.368-.334-.549-.954-.549-1.873v-12.29h-3.434v16.988zM1119.533 278.059h-3.434v.948c0 .9-.095 1.476-.285 1.747-.295.368-.925.544-1.878.544-1.08 0-1.84-.176-2.269-.544q-.45-.375-.45-1.147c0-.782.37-1.478 1.104-2.078q.66-.548 2.74-1.544l.548-.246c1.524-.758 2.595-1.454 3.215-2.098.78-.8 1.17-1.81 1.17-3.02 0-1.39-.47-2.453-1.42-3.2q-1.504-1.201-4.419-1.202c-2.078 0-3.612.425-4.607 1.259-1.015.885-1.52 2.254-1.52 4.122v.846h3.43v-1.07c0-.988.134-1.644.373-1.974.324-.42.97-.634 1.96-.634 1.164 0 1.935.173 2.308.505q.45.373.451 1.349c0 .734-.2 1.278-.595 1.624-.266.269-.98.678-2.153 1.23l-1.971.995c-1.483.82-2.469 1.592-2.969 2.32-.495.719-.748 1.738-.748 3.077 0 1.379.483 2.393 1.448 3.02.896.588 2.269.873 4.122.873 1.862 0 3.281-.349 4.25-1.063 1.07-.8 1.6-2.015 1.6-3.669zM1131.796 277.177v.75c0 .97-.254 1.746-.749 2.329-.541.641-1.276.956-2.22.956-.924 0-1.639-.28-2.18-.856-.495-.583-.749-1.364-.749-2.354v-.825zm3.388-2.42h-9.286v-2.638c0-1.025.276-1.834.824-2.44.535-.6 1.25-.91 2.154-.91.847 0 1.54.252 2.095.725.554.471.825 1.027.825 1.68v1.325h3.388v-1.205c0-1.563-.51-2.797-1.525-3.688-1.063-.924-2.617-1.385-4.673-1.385-2.23 0-3.883.546-4.951 1.649-1.037 1.056-1.566 2.649-1.566 4.8v4.773c0 1.888.529 3.378 1.6 4.498 1.149 1.21 2.734 1.82 4.768 1.82 2.154 0 3.759-.59 4.822-1.786q1.524-1.7 1.525-5.146zM1155.872 280.093h3.703v.124c0 2.034-.654 3.65-1.949 4.793-1.3 1.156-3.068 1.74-5.259 1.74-4.902 0-7.39-2.703-7.39-8.033v-4.666c0-5.334 2.468-8.034 7.327-8.034 4.827 0 7.271 2.6 7.271 7.734v3.403h-7.213v-3.02h3.6v-1.058c0-1.254-.28-2.205-.834-2.835-.556-.62-1.441-.934-2.644-.934-1.28 0-2.244.38-2.853 1.134-.61.75-.92 1.98-.92 3.669v4.397c0 1.757.288 3.054.859 3.83.57.78 1.505 1.18 2.768 1.18 1.12 0 1.995-.314 2.61-.936.615-.625.924-1.422.924-2.364zM1289.77 279.945h3.703v.124c0 2.115-.659 3.774-1.949 4.935-1.3 1.158-3.068 1.744-5.259 1.744-4.902 0-7.39-2.7-7.39-8.032v-4.664c0-5.337 2.468-8.037 7.327-8.037 2.234 0 4.012.58 5.293 1.73 1.273 1.153 1.92 2.824 1.92 4.978v.124h-3.645v-.158c0-1.037-.3-1.871-.895-2.476-.59-.605-1.463-.905-2.583-.905-1.256 0-2.2.38-2.795 1.147-.59.758-.888 1.987-.888 3.653v4.398c0 1.763.288 3.054.859 3.83.566.782 1.505 1.182 2.768 1.182 1.12 0 1.995-.314 2.61-.939.615-.624.924-1.475.924-2.534zM1334.394 273.743c0-2.186-.82-3.298-2.444-3.298-.844 0-1.52.288-1.995.859-.473.558-.71 1.38-.71 2.439v2.778c0 1.06.232 1.88.695 2.444.466.57 1.115.856 1.924.856.766 0 1.39-.266 1.85-.78.45-.515.68-1.364.68-2.52zm-1.615 9.156c-1.4 0-2.568-.576-3.449-1.705l-.149-.19v1.724h-3.405v-19.795h3.496v6.141l.144-.175c.824-1.015 1.995-1.535 3.478-1.535 1.43 0 2.63.52 3.573 1.552.946 1.029 1.424 2.617 1.424 4.712v3.04c0 2.092-.478 3.672-1.424 4.697-.944 1.02-2.183 1.534-3.688 1.534M1389.508 266.293h3.244v16.625h-3.244zM1392.752 286.71h-3.244v-2.505h3.244zM1404.585 282.851l-3.02-10.837-3.044 10.837h-3.693l5.264-16.559h2.893l5.288 16.559zM1248.41 277.158v.754q0 1.454-.743 2.334c-.537.637-1.276.946-2.22.946-.924 0-1.64-.28-2.18-.85-.498-.579-.75-1.37-.75-2.355v-.829zm3.393-2.41h-9.285v-2.644c0-1.024.27-1.834.829-2.439.53-.6 1.249-.91 2.149-.91.846 0 1.539.252 2.095.73.554.466.82 1.022.82 1.675v1.325h3.392v-1.205q-.002-2.354-1.524-3.683c-1.064-.93-2.617-1.39-4.673-1.39-2.23 0-3.883.546-4.952 1.648-1.036 1.057-1.566 2.652-1.566 4.796v4.778c0 1.888.532 3.373 1.6 4.498 1.15 1.214 2.735 1.824 4.769 1.824 2.158 0 3.758-.6 4.822-1.79q1.523-1.703 1.524-5.142zM1263.479 277.158v.754q0 1.454-.75 2.334c-.536.637-1.275.946-2.219.946-.924 0-1.639-.28-2.176-.85-.497-.579-.753-1.37-.753-2.355v-.829zm3.392-2.41h-9.29v-2.644c0-1.024.27-1.834.83-2.439.528-.6 1.248-.91 2.153-.91.846 0 1.539.252 2.09.73.554.466.825 1.022.825 1.675v1.325h3.392v-1.205c0-1.568-.514-2.798-1.524-3.683-1.068-.93-2.622-1.39-4.678-1.39-2.23 0-3.878.546-4.947 1.648-1.036 1.057-1.566 2.652-1.566 4.796v4.778c0 1.888.53 3.373 1.596 4.498q1.722 1.822 4.773 1.824c2.154 0 3.754-.6 4.822-1.79 1.01-1.134 1.524-2.85 1.524-5.142zM1182.922 273.933c-.659-.344-1.159-.67-1.496-1.005a2.4 2.4 0 0 1-.578-.975c-.056-.25-.095-.615-.095-1.103l-.022-.141c0-.888.095-1.459.295-1.705.286-.378.971-.578 2.052-.578.793 0 1.454.239 1.973.68.48.403.724.903.724 1.498v4.468c-1.2-.41-2.153-.795-2.853-1.139m-2.205 3.405h-3.344v1.208q0 2.438 1.366 3.653c.963.876 2.458 1.315 4.507 1.315 2.354 0 3.968-.454 4.844-1.373.715-.766 1.073-2.066 1.073-3.89v-12.006h-3.232v1.02a4.15 4.15 0 0 0-1.841-1.074c-.549-.141-1.388-.22-2.512-.22-1.256 0-2.29.384-3.086 1.15-.744.714-1.12 1.585-1.12 2.6v1.402q0 1.549.92 2.615c.515.624 1.305 1.19 2.356 1.7.62.32 1.235.6 1.835.849.378.146.839.334 1.404.524q1.167.428 1.46.705.427.349.428 1.147c0 .873-.158 1.458-.475 1.778-.325.348-.969.514-1.925.514q-1.43.002-2.039-.395c-.414-.295-.62-.814-.62-1.544zM1370.556 273.933c-.66-.344-1.163-.67-1.495-1.005a2.4 2.4 0 0 1-.578-.975c-.056-.25-.09-.615-.09-1.103l-.027-.141c0-.888.095-1.459.295-1.705.285-.378.966-.578 2.046-.578.798 0 1.464.239 1.974.68q.726.605.724 1.498v4.468c-1.195-.41-2.149-.795-2.849-1.139m-2.205 3.405h-3.344v1.208c0 1.624.457 2.844 1.361 3.653.969.876 2.464 1.315 4.513 1.315 2.349 0 3.968-.454 4.844-1.373.714-.766 1.073-2.066 1.073-3.89v-12.006h-3.237v1.02a4.1 4.1 0 0 0-1.836-1.074c-.55-.141-1.388-.22-2.513-.22-1.256 0-2.29.384-3.085 1.15-.744.714-1.12 1.585-1.12 2.6v1.402q-.001 1.549.92 2.615.772.935 2.356 1.7c.615.32 1.234.6 1.84.849.372.146.833.334 1.397.524q1.161.428 1.46.705c.286.232.425.615.425 1.147 0 .873-.153 1.458-.47 1.778-.33.348-.969.514-1.925.514q-1.431.002-2.04-.395c-.414-.295-.619-.814-.619-1.544zM1206.56 273.933c-.659-.344-1.159-.67-1.49-1.005a2.3 2.3 0 0 1-.578-.975c-.056-.25-.095-.615-.095-1.103l-.022-.141c0-.888.09-1.459.29-1.705.285-.378.966-.578 2.051-.578.793 0 1.459.239 1.973.68.48.403.725.903.725 1.498v4.468c-1.2-.41-2.15-.795-2.854-1.139m-2.2 3.405h-3.349v1.208c0 1.624.461 2.844 1.366 3.653q1.443 1.314 4.507 1.315c2.354 0 3.974-.454 4.85-1.373.71-.766 1.068-2.066 1.068-3.89v-12.006h-3.232v1.02a4.1 4.1 0 0 0-1.842-1.074c-.549-.141-1.383-.22-2.507-.22q-1.892 0-3.086 1.15c-.743.714-1.124 1.585-1.124 2.6v1.402c0 1.032.31 1.905.92 2.615.514.624 1.305 1.19 2.356 1.7.62.32 1.234.6 1.839.849.373.146.834.334 1.4.524q1.173.428 1.463.705c.286.232.425.615.425 1.147 0 .873-.154 1.458-.471 1.778-.33.348-.968.514-1.927.514-.951 0-1.636-.129-2.041-.395-.415-.295-.615-.814-.615-1.544zM1218.994 283.218v-1.58q.722 1.075 1.324 1.429c.554.302 1.4.446 2.544.446 1.705 0 2.92-.339 3.659-1.02.675-.639 1.014-1.67 1.014-3.12V266.23h-3.429v12.11c0 .905-.134 1.51-.4 1.853-.349.476-1.03.725-2.017.725q-1.6.001-2.137-.525-.559-.5-.558-1.873v-12.29h-3.43v16.988zM1174.795 283.194v-16.969h-3.435v1.264c-.524-.573-1.014-.969-1.468-1.164-.646-.26-1.67-.395-3.073-.395-1.7 0-2.886.571-3.571 1.71-.464.795-.705 1.93-.705 3.41v12.144h3.439v-11.89l-.029-.15c0-.98.115-1.624.33-1.929q.495-.744 2.253-.746c1.251 0 2.066.276 2.456.8q.367.526.369 2.025v11.89zM1234.462 285.647v-3.573h2.893v-2.41h-2.893v-8.946c0-.586.01-.98.044-1.178.046-.29.166-.49.351-.622.176-.115.49-.183.925-.205q.444-.044 1.795-.044v-2.464h-3.29q-1.626-.001-2.469 1.174c-.524.734-.795 1.753-.795 3.073v9.212h-1.568v2.41h1.568v3.573zM1383.719 285.647v-3.573h2.888v-2.41h-2.888v-8.946c0-.586.01-.98.044-1.178.046-.29.16-.49.351-.622.176-.115.49-.183.92-.205q.45-.044 1.8-.044v-2.464h-3.295c-1.079 0-1.903.39-2.464 1.174-.524.734-.795 1.753-.795 3.073v9.212h-1.568v2.41h1.568v3.573zM1195.574 283.218l-.229-2.249c.44.93.864 1.549 1.3 1.84.605.438 1.654.675 3.122.704v-3.044q-1.625-.001-2.568-.251c-.585-.173-1.025-.415-1.3-.744q-.373-.428-.5-1.205c-.054-.295-.078-.825-.078-1.573v-10.467h-3.434v16.989zM1349.667 277.158v.754q.002 1.454-.74 2.334c-.54.637-1.28.946-2.224.946-.924 0-1.639-.28-2.18-.85-.498-.579-.75-1.37-.75-2.355v-.829zm3.393-2.41h-9.286v-2.644c0-1.024.27-1.834.824-2.439.535-.6 1.254-.91 2.154-.91.851 0 1.544.252 2.095.73.554.466.82 1.022.82 1.675v1.325h3.393v-1.205q-.001-2.354-1.525-3.683c-1.058-.93-2.617-1.39-4.673-1.39-2.23 0-3.878.546-4.952 1.648-1.036 1.057-1.565 2.652-1.565 4.796v4.778c0 1.888.531 3.373 1.6 4.498 1.148 1.214 2.734 1.824 4.768 1.824 2.154 0 3.764-.6 4.822-1.79q1.524-1.703 1.525-5.142zM1418.867 277.158v.754q0 1.454-.744 2.334c-.542.637-1.276.946-2.22.946-.929 0-1.639-.28-2.185-.85-.493-.579-.744-1.37-.744-2.355v-.829zm3.393-2.41h-9.286v-2.644c0-1.024.276-1.834.824-2.439.535-.6 1.25-.91 2.154-.91.847 0 1.54.252 2.095.73.55.466.82 1.022.82 1.675v1.325h3.393v-1.205c0-1.568-.515-2.798-1.525-3.683-1.063-.93-2.622-1.39-4.678-1.39-2.23 0-3.873.546-4.946 1.648-1.037 1.057-1.571 2.652-1.571 4.796v4.778c0 1.888.536 3.373 1.6 4.498 1.153 1.214 2.739 1.824 4.773 1.824 2.154 0 3.759-.6 4.822-1.79 1.01-1.134 1.525-2.85 1.525-5.142zM1359.647 283.218l-.23-2.249c.44.93.87 1.549 1.3 1.84.61.438 1.655.675 3.123.704v-3.044c-1.088 0-1.94-.085-2.573-.251-.58-.173-1.02-.415-1.296-.744q-.371-.428-.5-1.205c-.054-.295-.073-.825-.073-1.573v-10.467h-3.439v16.989zM1304.805 277.515c0 1.376-.22 2.335-.675 2.905-.42.515-1.135.774-2.164.774-1.1 0-1.873-.244-2.31-.75-.434-.514-.644-1.414-.644-2.694v-5.937c0-1.154.21-1.949.644-2.378.437-.447 1.21-.68 2.31-.68 1.059 0 1.786.243 2.186.704.439.5.653 1.41.653 2.725zm3.435-4.573c0-2.095-.42-3.688-1.271-4.788-1.02-1.295-2.683-1.949-5.003-1.949-2.383 0-4.059.574-5.044 1.698-.902 1.032-1.349 2.72-1.349 5.073v4.235c0 2.034.447 3.588 1.35 4.668 1.06 1.249 2.738 1.873 5.043 1.873 2.054 0 3.615-.578 4.693-1.724 1.056-1.078 1.58-2.598 1.58-4.542zM1320.078 277.515c0 1.376-.22 2.335-.67 2.905-.425.515-1.14.774-2.164.774-1.1 0-1.873-.244-2.31-.75q-.65-.772-.649-2.694v-5.937q-.001-1.733.65-2.378c.436-.447 1.209-.68 2.309-.68 1.056 0 1.78.243 2.185.704.44.5.65 1.41.65 2.725zm3.44-4.573c0-2.095-.425-3.688-1.276-4.788-1.02-1.295-2.678-1.949-4.998-1.949-2.383 0-4.063.574-5.044 1.698-.907 1.032-1.354 2.72-1.354 5.073v4.235c0 2.034.447 3.588 1.354 4.668 1.06 1.249 2.734 1.873 5.044 1.873 2.049 0 3.61-.578 4.693-1.724 1.051-1.078 1.58-2.598 1.58-4.542z" style="fill:#231916;fill-opacity:1;fill-rule:nonzero;stroke:none;stroke-width:2.4391" transform="matrix(1.33333 0 0 -1.33333 -1001.427 530.898)"/><path d="M914.887 275.148v.988c0 4.32-1.5 7.72-4.454 10.112-2.915 2.364-6.87 3.561-11.744 3.561-10.998 0-16.579-5.485-16.579-16.3v-9.032c0-10.818 5.532-16.303 16.452-16.303 4.964 0 8.937 1.193 11.813 3.534 2.907 2.373 4.383 5.805 4.383 10.2v.988h-9.323v-1.046c0-1.827-.553-3.217-1.675-4.252-1.13-1.034-2.812-1.563-5.008-1.563-2.463 0-4.278.666-5.402 1.97-1.14 1.333-1.72 3.547-1.72 6.589v8.515c0 3.236.561 5.57 1.666 6.944 1.083 1.337 2.873 2.007 5.332 2.007 2.195 0 3.902-.544 5.064-1.614 1.173-1.074 1.743-2.503 1.743-4.369v-.93zM843.824 260.18v16.89c0 13.542-15.993 11.677-15.993 11.677h-15.84v-39.314h15.84c16.274 0 15.993 10.747 15.993 10.747m-9.4 9.032c0-8.615-.207-8.33-1.222-9.757-1.159-1.71-3.054-2.473-6.256-2.473h-5.284v24.223h5.132c3.196 0 5.25-.754 6.408-2.466 1.015-1.437 1.222-.98 1.222-9.527M809.015 288.768h-9.872l-.01-.022s-2.314-13.847-13.11-17.932v17.932h-9.617v-18.323c-3.298 1.132-6.798 3.796-8.108 9.415l-9.256-2.017s4.854-14.352 17.364-16.54v-11.849h9.617v12.396a26.6 26.6 0 0 1 4.852 1.53l10.641-13.926h10.442c-5.239 6.627-9.476 12.24-14.044 18.33 9.295 8.161 11.1 21.006 11.1 21.006" style="fill:#003478;fill-opacity:1;fill-rule:nonzero;stroke:none;stroke-width:2.4391" transform="matrix(1.33333 0 0 -1.33333 -1001.427 530.898)"/><path d="M875.047 286.248c-2.91 2.339-6.864 3.527-11.737 3.527-10.986 0-16.567-5.481-16.567-16.289v-9.022c0-10.81 5.532-16.288 16.442-16.288 10.823 0 16.31 5.288 16.31 15.72v7.324h-16.958v-7.344h7.702v-1.295c0-2.23-.53-3.895-1.566-4.954-1.039-1.06-2.758-1.597-5.107-1.597-2.505 0-4.374.658-5.532 1.949-1.176 1.31-1.776 3.529-1.776 6.6v8.507c0 3.235.561 5.571 1.666 6.94 1.083 1.331 2.869 2.007 5.322 2.007 2.195 0 3.903-.544 5.064-1.612 1.168-1.076 1.739-2.39 1.739-4.025v-.985h9.447v.985c0 4.169-1.496 7.478-4.45 9.852M875.452 339.934c-2.115-3.627-5.135-7.093-8.828-10.276-3.487 5.376-7.332 9.632-10.736 13.025a89 89 0 0 1-6.508 5.847c1.97 1.834 3.615 3.817 4.834 5.9.95 1.617 1.6 3.244 1.978 4.863 6.954-1.49 14.952-4.012 22.699-8.256-.115-3.612-1.254-7.376-3.44-11.103m-37.696-24.879a83 83 0 0 0-6.866-1.463l-.002.014a65 65 0 0 0-10.69-1.244c-.91 9.642-.379 17.93.69 24.596 3.01.21 6.132.715 9.28 1.54 6.56 1.714 12.406 4.553 16.945 8.095 5.788-4.586 12.042-10.81 17.088-18.908-7.151-5.508-16.359-9.986-26.444-12.63m-44.943 3.164-.005-.015-.095.061c-2.22 1.3-4.115 2.795-5.693 4.44 2.653 5.79 5.922 11.178 9.361 15.378a63 63 0 0 0 3.315 3.702c4.312-3.148 10.649-4.917 17.837-4.939-1.049-6.734-1.544-14.976-.644-24.505-14.75.312-23.952 5.805-24.076 5.878m4.727 37.77c5.868 2.18 9.937 2.297 11.666 2.207.62-1.056 1.615-1.961 2.939-2.65.076-.038.17-.07.256-.109-3.166-1.712-7.917-4.7-12.861-9.351-1.076 1.217-1.854 2.597-2.254 4.127-.47 1.82-.37 3.778.254 5.775m8.378 10.45c1.93-.03 3.578-.262 4.764-.496-.461-.52-.886-1.049-1.21-1.6-.58-.98-.905-1.968-.99-2.936-1.9.022-4.945-.213-8.928-1.371 1.554 2.295 3.725 4.463 6.364 6.402m15.088 7.025c2.41.63 4.825 1.066 7.198 1.315-.59-1.293-.905-2.242-.915-2.269a25.4 25.4 0 0 1-6.56-.887c-2.691-.73-5.11-1.82-7.089-3.142-.31.102-1.495.47-3.305.77 3.215 1.757 6.832 3.206 10.671 4.213m14.735-3.298a9 9 0 0 1-1.359.876c-1.11.573-2.414.966-3.834 1.21.256.705.724 1.724 1.315 2.76 5.212.12 10.012-.711 13.8-2.446-5.444-.9-9.117-2.12-9.922-2.4m17.344-5.341c.15-.571.225-1.159.261-1.75-6.997 1.245-12.607 1.496-15.386 1.53.071.395.12.79.11 1.186l-.234 1.422c-.024.09-.06.178-.095.263 1.89.598 6.247 1.812 12.034 2.476 1.671-1.478 2.805-3.213 3.31-5.127m-26.954-9.752a26 26 0 0 1 4.446 1.705c1.847-.807 7.36-3.395 13.896-8.168-4.127-3.047-9.371-5.532-15.108-7.032a48.6 48.6 0 0 0-7.898-1.398c1.6 8.04 3.85 13.203 4.664 14.893m-3.854-.795c-1.215-2.88-2.94-7.734-4.205-14.29-6.561-.106-12.315 1.321-16.147 3.99 7.071 6.57 13.679 9.578 15.174 10.21 1.624-.173 3.368-.147 5.178.09m-10.037 8.622c1.459 2.454 5.05 4.703 9.366 5.86 4.31 1.163 8.608 1.038 11.232-.318 1.044-.542 1.703-1.234 1.954-2.044.249-.815.076-1.724-.515-2.705-1.458-2.461-5.049-4.703-9.36-5.861-4.31-1.159-8.608-1.037-11.228.324-1.044.542-1.705 1.234-1.949 2.04-.239.812-.07 1.724.5 2.704m34.601-12.376c-5.441 4.115-10.234 6.793-13.059 8.223 1.086.829 1.995 1.734 2.7 2.685 1.378.024 7.896.051 16.579-1.517a14.4 14.4 0 0 0-1.59-3.878c-1.125-1.932-2.705-3.788-4.63-5.513m55.67-16.112c.01.29.02.583.02.878 0 3.414-.444 6.832-1.303 10.146l-.395 1.361-.185.13h-2.925l-.153-.078-.027-.169.6-2.053c.532-2.04.9-4.03 1.1-5.996-5.127 6.052-11.061 10.703-17.198 14.267a20.5 20.5 0 0 1-.64 4 20 20 0 0 1-.926 2.73l-.205.102-2.802-.53-.135-.095v-.168c.42-.922.764-1.883 1.02-2.84.115-.438.193-.885.268-1.329-7.59 3.893-15.317 6.257-22.066 7.679 0 1.078-.13 2.153-.405 3.18-.444 1.686-1.244 3.25-2.354 4.669 3.588.202 7.556.151 11.725-.369l.146.047.073.134v2.82l-.163.182c-5.388.637-10.437.54-14.815.12-.564.422-1.154.827-1.79 1.202-3.962 2.318-9.047 3.584-14.655 3.769.371.32.756.578 1.14.722l.107.239-.986 2.627-.09.107h-.151c-1.725-.651-3.149-2.149-4.261-3.761-3.21-.2-6.535-.73-9.879-1.605-5.802-1.515-11.049-3.92-15.327-6.903-2.415-.058-5.159-.42-8.022-1.375l-.105-.088v-.137l.883-2.663.23-.117c.846.28 1.69.495 2.51.668-1.699-1.666-3.123-3.444-4.218-5.305a19 19 0 0 1-1.056-2.127c-3.488-1.417-7.471-3.485-11.876-6.515l-.078-.153v-3.444l.1-.161.195.007c3.854 2.788 7.376 4.802 10.52 6.266-.244-1.727-.171-3.43.256-5.064.544-2.07 1.612-3.92 3.102-5.522a65 65 0 0 1-3.288-3.683c-3.385-4.105-6.578-9.237-9.237-14.771-1.158 1.714-2.01 3.558-2.52 5.5-.433 1.634-.619 3.4-.533 5.232l-.061.144-.125.041h-2.788l-.185-.17c-.076-2.105.14-4.135.634-6.047.761-2.89 2.134-5.578 4.078-7.998-2.434-5.678-4.268-11.647-5.153-17.327l.041-.156.144-.061h2.868l.19.153c.771 4.83 2.291 9.918 4.291 14.823 1.578-1.478 3.393-2.83 5.442-4.035l.26-.141 1.21-.644.035-.02h.01c3.32-1.697 12.066-5.422 24.605-5.568.125-.978.256-1.968.41-2.97l.195-.16h2.92l.149.071.041.142a92 92 0 0 0-.405 2.96c2.927.116 6.017.41 9.286.989a89 89 0 0 1 8.727 1.802c10.476 2.75 19.883 7.269 27.279 12.908a64.5 64.5 0 0 0 6.33-15.981l.187-.139h2.9l.151.068.03.164c-1.654 6.973-4.2 12.868-7.118 17.883 4.098 3.493 7.471 7.342 9.857 11.442 2.134 3.627 3.383 7.293 3.768 10.915 6.366-3.92 12.42-9.093 17.433-15.93-.33-5.915-2.269-11.742-5.947-18.025-1.949-3.334-4.359-6.602-7.169-9.698l-.029-.197.166-.103h3.737l.151.059a61 61 0 0 1 5.898 8.334c3.253 5.566 5.136 10.332 5.922 15.57a61.6 61.6 0 0 0 4.51-8.918l.253-.088 2.596 1.054.09.102v.142c-1.97 4.797-4.354 9.056-7.04 12.846" style="fill:#e70;fill-opacity:1;fill-rule:nonzero;stroke:none;stroke-width:2.4391" transform="matrix(1.33333 0 0 -1.33333 -1001.427 530.898)"/><path d="m760.261 296.69 3.144.395.27-2.134-11.246-1.417-.266 2.137 5.244.66-5.734 3.235-.324 2.559 4.968-3.037 6.24 4.744.309-2.478-4.649-3.415z" style="fill:#bfbab8;fill-opacity:1;fill-rule:nonzero;stroke:none;stroke-width:2.4391" transform="matrix(1.33333 0 0 -1.33333 -1001.427 530.898)"/><path d="m758.113 309.019-2.45-.051c-.96-.02-1.658-.195-2.085-.52q-.636-.493-.614-1.478c.014-.688.231-1.183.66-1.478q.644-.447 2.12-.417l2.444.049c.934.02 1.6.185 2.008.5q.608.475.585 1.51c-.015.656-.234 1.141-.668 1.446q-.636.463-2 .439m-2.44-6.117q-4.515-.091-4.602 4.032c-.022 1.256.31 2.26 1.005 3.01.683.748 1.83 1.138 3.427 1.17l2.595.056c1.6.034 2.764-.317 3.478-1.056.725-.736 1.095-1.739 1.12-3.007.06-2.705-1.42-4.086-4.427-4.147zM756.536 316.756c.05.5-.05.904-.29 1.207q-.364.451-1.12.52c-.454.04-.834-.064-1.134-.323q-.443-.39-.51-1.124l-.185-2.03 3.058-.28zm1.595-2.188 4.583-.422-.195-2.14-11.286 1.03.395 4.283c.1 1.102.478 1.951 1.144 2.551q.997.898 2.554.756c.739-.068 1.354-.297 1.834-.687q.72-.582.99-1.583l5.132 2.007-.224-2.468-4.773-1.725zM757.288 324.185l.844 4.217 1.835-.366-.844-4.217 2.858-.57.98 4.946 1.835-.366-1.405-7.052-11.11 2.21 1.405 7.054 1.83-.366-.976-4.944z" style="fill:#bfbab8;fill-opacity:1;fill-rule:nonzero;stroke:none;stroke-width:2.4391" transform="matrix(1.33333 0 0 -1.33333 -1001.427 530.898)"/><path d="m758.189 334.801 3.744-2.61.829 2.62zm5.278-3.695 1.89-1.32-.68-2.163-9.593 7.249.522 1.673 12.025.447-.686-2.176-2.305.005zM768.989 345.787q-.358.72-1.6 1.329l-1.954.966q-1.3.642-2.09.5c-.525-.09-.94-.432-1.23-1.02l-.81-1.636 6.808-3.364.805 1.64c.29.575.31 1.104.07 1.585m-8.546 2.617c.563 1.132 1.31 1.866 2.263 2.21q1.427.512 3.579-.55l2.075-1.026q2.152-1.065 2.608-2.532c.305-.98.175-2.044-.388-3.183l-1.74-3.52-10.165 5.02zM768.336 353.037l2.305 3.637 1.583-1.003-2.303-3.634 2.454-1.558 2.698 4.26 1.58-1.002-3.849-6.078-9.576 6.064 3.85 6.08 1.582-1.002-2.697-4.259zM773.248 360.026l2.668 3.403 1.47-1.159-2.665-3.398 3.685-2.893-1.334-1.695-8.917 7.003 4.444 5.659 1.478-1.156-3.115-3.966zM778.507 366.419l2.973 3.107 1.356-1.295-2.976-3.107 2.1-2.013 3.488 3.644 1.352-1.297-4.974-5.193-8.193 7.837 4.983 5.2 1.344-1.295-3.488-3.644zM793.785 371.388l-1.65-1.38-7.75 2.753 4.55-5.432-1.653-1.38-7.269 8.697 1.647 1.381 7.756-2.768-4.559 5.446 1.659 1.378zM792.208 374.494l1.7 1.124q.607-.717 1.229-.773.615-.054 1.41.47c1.01.674 1.249 1.423.695 2.254q-.37.562-.866.659-.503.092-1.224-.232l-.99-.439c-1.898-.846-3.33-.536-4.308.934q-.865 1.317-.505 2.66c.244.894.84 1.66 1.8 2.292q1.394.925 2.703.724c.87-.129 1.634-.624 2.3-1.47l-1.73-1.14c-.329.437-.675.683-1.056.737-.373.054-.792-.073-1.249-.376q-.696-.46-.839-1.02c-.095-.367-.02-.743.23-1.119.214-.327.49-.52.829-.57q.506-.081 1.256.241l1.12.483q2.729 1.177 4.197-1.042.944-1.425.53-2.783c-.271-.902-.93-1.697-1.959-2.378-1.015-.673-1.976-.944-2.873-.81q-1.358.198-2.4 1.574M800.192 383.248l3.81 1.998.873-1.654-3.812-2.002 1.348-2.573 4.469 2.341.868-1.658-6.37-3.342-5.264 10.034 6.363 3.344.873-1.66-4.463-2.342zM808.757 387.747c-.985 2.839-.17 4.72 2.44 5.63 1.17.404 2.204.419 3.11.046q1.365-.562 1.929-2.188l.039-.11-2.03-.707-.043.11q-.248.728-.89 1.043c-.425.21-.93.215-1.506.017-.653-.229-1.053-.595-1.21-1.1q-.229-.761.247-2.136l.807-2.313q.456-1.32 1.132-1.736c.454-.278 1.007-.303 1.668-.07.615.214 1.02.53 1.19.95q.26.632-.085 1.605l-.175.513-1.893-.659-.58 1.676 3.873 1.35.644-1.828c.946-2.742.141-4.562-2.44-5.454q-3.888-1.355-5.373 2.91zM819.8 385.911c-.466.498-.776 1.11-.94 1.835l-1.638 7.407 2.102.464 1.625-7.342q.204-.947.82-1.359c.404-.275.9-.346 1.475-.22q.865.192 1.254.825.392.632.185 1.578l-1.624 7.34 2.12.47 1.629-7.407c.16-.73.134-1.415-.09-2.066a3.53 3.53 0 0 0-1.135-1.642q-.795-.675-1.934-.924-1.124-.25-2.134.024a3.56 3.56 0 0 0-1.715 1.017M831.305 394.663l-.895-4.471 2.724.288zm-1.28-6.313-.454-2.263-2.254-.237 2.802 11.693 1.747.183 5.217-10.84-2.273-.24-.915 2.114zM841.476 393.19c.5-.001.895.125 1.18.393.278.266.425.652.43 1.154q.007.69-.42 1.103c-.28.28-.666.417-1.161.422l-2.04.019-.024-3.073zm-2.054-1.775-.042-4.598-2.148.02.1 11.337 4.305-.04c1.107-.01 1.987-.319 2.639-.936.648-.614.973-1.439.963-2.48q-.017-1.118-.534-1.883c-.351-.515-.846-.888-1.5-1.122l2.42-4.952-2.476.022-2.117 4.62z" style="fill:#bfbab8;fill-opacity:1;fill-rule:nonzero;stroke:none;stroke-width:2.4391" transform="matrix(1.33333 0 0 -1.33333 -1001.427 530.898)"/><path d="m851.194 394.485-1.89-4.151 2.724-.339zm-2.683-5.856-.956-2.102-2.25.28 5.394 10.752 1.744-.215 2.614-11.744-2.268.278-.415 2.27zM863.404 383.512l-2.09.515-2.354 7.87-1.698-6.873-2.085.517 2.71 11.003 2.092-.517 2.354-7.886 1.695 6.888 2.085-.514zM871.569 390.6l-3.249-8.891-2.034.744 3.244 8.888-2.715.99.642 1.761 7.47-2.73-.643-1.756zM876.061 385.663l3.879-1.869-.815-1.688-3.873 1.869-1.264-2.62 4.547-2.19-.815-1.683-6.48 3.12 4.912 10.212 6.483-3.122-.81-1.685-4.549 2.187zM883.612 381.693l3.673-2.244-.98-1.6-3.669 2.25-1.52-2.481 4.301-2.632-.976-1.6-6.141 3.756 5.922 9.673 6.142-3.756-.983-1.6-4.3 2.632zM891.84 376.661q2.902 3.464 6.083.798c.953-.795 1.495-1.678 1.639-2.651q.207-1.463-.94-2.837l-.07-.088-1.654 1.38.064.076q.554.669.5 1.38c-.04.474-.29.908-.759 1.3-.534.445-1.054.6-1.561.474q-.774-.19-1.712-1.312l-1.571-1.876q-.879-1.057-.91-1.846c-.024-.53.232-1.01.761-1.454.473-.395.93-.568 1.393-.522.46.042.87.285 1.237.72l.087.102 1.625-1.36-.078-.086c-.78-.935-1.656-1.415-2.63-1.454q-1.456-.054-2.905 1.159c-2.105 1.76-2.197 3.797-.263 6.107zM901.586 364.178l1.768 1.683c.7.668 1.096 1.26 1.19 1.79.096.527-.08 1.03-.538 1.502q-.706.75-1.486.652c-.514-.071-1.129-.442-1.849-1.122L898.898 367q-1.007-.962-1.136-1.722-.133-.756.58-1.508c.451-.475.944-.68 1.464-.622.522.061 1.12.403 1.78 1.03m-2.324 6.156c2.185 2.073 4.22 2.112 6.117.124.86-.914 1.3-1.88 1.29-2.897-.01-1.018-.59-2.079-1.749-3.179l-1.88-1.785c-1.159-1.105-2.254-1.624-3.283-1.566-1.03.056-1.978.546-2.854 1.466-1.859 1.959-1.7 3.976.485 6.051zM907.541 356.8l1.954 1.472q1.15.867 1.385 1.639c.159.514.034 1.034-.36 1.558-.42.551-.884.82-1.406.815q-.78-.015-1.958-.9l-1.959-1.476c-.744-.558-1.185-1.083-1.334-1.576-.137-.49-.005-1.012.41-1.563q.594-.79 1.383-.79.791 0 1.885.822m-1.6 6.38q3.607 2.716 6.088-.578c.756-1.007 1.07-2.014.951-3.024q-.19-1.516-2.1-2.959l-2.075-1.563c-1.278-.956-2.427-1.349-3.437-1.176q-1.531.263-2.666 1.786-2.444 3.24 1.166 5.956zM915.344 350.789q.708.421.859 1.02c.105.394.017.821-.249 1.272l-1.02 1.71-2.814-1.673 1.02-1.707c.265-.447.59-.722.98-.837q.572-.171 1.224.215m1.1-1.85c-.9-.538-1.795-.68-2.673-.436-.88.247-1.62.866-2.205 1.856l-1.066 1.793-3.702-2.202-1.1 1.853 9.746 5.796 2.169-3.642q.877-1.485.57-2.827c-.21-.895-.785-1.622-1.739-2.19M916.892 345.341l1.8-3.907-1.695-.786-1.8 3.91-2.644-1.215 2.11-4.583-1.695-.785-3.012 6.534 10.29 4.747 3.01-6.53-1.7-.785-2.11 4.576zM920.613 335.418c.156-.478.41-.807.754-.985q.512-.269 1.227-.03c.439.147.739.393.907.754q.254.534.022 1.234l-.646 1.934-2.918-.975zm-2.349 1.361-4.363-1.458-.68 2.039 10.746 3.6 1.37-4.08q.524-1.573-.026-2.799-.552-1.223-2.03-1.72c-.71-.238-1.358-.275-1.958-.109-.595.166-1.115.512-1.549 1.049l-3.885-3.903-.793 2.354 3.683 3.503z" style="fill:#bfbab8;fill-opacity:1;fill-rule:nonzero;stroke:none;stroke-width:2.4391" transform="matrix(1.33333 0 0 -1.33333 -1001.427 530.898)"/><path d="m924.996 326.676-4.54.44.567-2.684zm-6.413.637-2.295.222-.468 2.217 11.925-1.605.356-1.724-10.257-6.286-.47 2.234 2.01 1.13zM927.511 317.854l-9.4-1.08-.251 2.153 9.403 1.083-.332 2.87 1.86.215.91-7.898-1.86-.217zM929.788 311.858l-11.325-.505-.095 2.15 11.325.504zM929.855 308.443l-7.893-2.01 7.764-2.459-.066-2.249-11.22 3.957.044 1.722 11.437 3.287zM924.572 298.858l-.566-4.264-1.854.249.561 4.263-2.875.383-.669-4.997-1.853.246.948 7.13 11.23-1.493-.949-7.13-1.849.247.664 5z" style="fill:#bfbab8;fill-opacity:1;fill-rule:nonzero;stroke:none;stroke-width:2.4391" transform="matrix(1.33333 0 0 -1.33333 -1001.427 530.898)"/></svg>