<svg xmlns="http://www.w3.org/2000/svg" xml:space="preserve" width="554.8056" height="252.46082" viewBox="0 0 554.8056 252.46082"><g style="stroke-width:.618868"><g style="stroke-width:.618868"><path d="M0 0c0-32.357-25.837-58.59-57.709-58.59S-115.418-32.357-115.418 0c0 32.359 25.837 58.59 57.709 58.59S0 32.359 0 0" style="fill:#bf202e;fill-opacity:1;fill-rule:nonzero;stroke:none;stroke-width:.618868" transform="matrix(2.15447 0 0 -2.15447 248.665 126.23)"/></g><g style="stroke-width:.618868"><path d="M0 0s-2.24-33.012 31.105-22.396c0 0 1.994.243 3.072-1.831 0 0 10.451-10.948 11.198-12.358 0 0 1.245-4.146-.995-6.47L34.094-50.77s-3.816-1.907-6.802.997L15.763-29.949s-1.659 1.575-2.82-.747c0 0-11.695-19.409-11.944-19.409s-4.065-1.66-6.305-.083l-11.031 9.207s-3.319 3.317.497 5.308l13.852 15.346s1.327 3.898-1.741 3.649c0 0-20.239 2.821-22.313 5.973 0 0-2.488 2.819-.83 6.137l4.479 11.779s2.738 3.981 7.383 1.244c0 0 11.44-4.718 15.01-8.455" style="fill:#fff;fill-opacity:1;fill-rule:nonzero;stroke:none;stroke-width:.618868" transform="matrix(2.15447 0 0 -2.15447 92.857 97.949)"/></g><g style="stroke-width:.618868"><path d="M0 0s-21.732-6.139-20.737 13.604c0 0-5.059 28.036-2.654 29.611 0 0 1.825 3.566 5.308 3.484l11.779-.249s4.23-.415 4.645-4.893c0 0 1.659-4.729-2.156-22.313 0 0-.664-3.235 2.985-1.244 0 0 15.263 7.963 17.336 8.46 0 0 4.728 2.737 7.051-.995 0 0 4.396-5.392 5.474-15.428 0 0 .581-2.903-4.147-4.811z" style="fill:#fff;fill-opacity:1;fill-rule:nonzero;stroke:none;stroke-width:.618868" transform="matrix(2.15447 0 0 -2.15447 151.132 136.19)"/></g><g style="stroke-width:.618868"><path d="M0 0h21v-67.5h33.75V-85H5s-5.25-1.5-5.25 5z" style="fill:#575551;fill-opacity:1;fill-rule:nonzero;stroke:none;stroke-width:.618868" transform="matrix(2.15447 0 0 -2.15447 305.964 33.712)"/></g><g style="stroke-width:.618868"><path d="M0 0h65.75v-18.5H43.5v-62s-1.25-5-4.25-5H22.5v67H0Z" style="fill:#575551;fill-opacity:1;fill-rule:nonzero;stroke:none;stroke-width:.618868" transform="matrix(2.15447 0 0 -2.15447 413.15 32.635)"/></g></g></svg>