<svg xmlns="http://www.w3.org/2000/svg" width="1423.3076" height="484.79602" viewBox="0 0 1423.3076 484.79602"><path d="M867.21 508.993v-27.446h115.784l.177-4.334c.097-2.383.255-5.47.353-6.861.165-2.364-3.602-2.553-58.07-2.905l-58.245-.377v-20.192h144.025v54.86l-58.245.378-58.246.377-.434 6.14-.434 6.138h118.771v21.669H867.21zm399.598-7.271V469.99h26.746l.394 19.14.394 19.14 61.07.377 61.07.376v24.573l-74.837-.072-74.837-.072zm-81.896-71.456v-101.84h29.652v203.68h-29.652zM7.294 513.326v-11.555H86.367v-41.84l-33.536-.387-33.535-.387-.41-11.918-.41-11.917H46.83v-76.56H21.414v-24.558h156.733V358.761h-25.416v76.56h28.24v24.558H116.02v41.892h76.248v23.112H7.294Zm115.785-116.284v-38.28H76.483v76.56h46.596zm91.78 116.285V501.77h183.562v23.112H214.86zm206.154.029v-11.528l30.006-.39 30.005-.39.383-27.807.384-27.807h29.591v56.337h93.193v23.112H421.013zm220.274-1.474v-11.556h180.738v23.113H641.287zm416.543-62.811v-46.922l34.242-.387 34.241-.387.39-21.307.392-21.307h-69.265V334.204H1156.671v91.006h-69.188v47.67h81.896v23.112H1057.83zm-502.675-5.082v-24.557H436.546v-23.113H555.155v-37.558H436.546V334.204h148.26v134.342h-29.652Zm690.473 2.912v-11.533l39.183-.384 39.184-.384.422-8.261c.41-8.023.308-8.285-3.53-9.085-26.083-5.44-42.653-14.99-50.894-29.33-3.19-5.555-3.882-8.461-3.843-16.162.056-11.086 2.382-16.285 11.425-25.536 12.683-12.975 35.163-20.639 60.54-20.639 25.376 0 47.857 7.664 60.54 20.639 9.042 9.25 11.369 14.45 11.425 25.536.055 10.888-3.945 19.424-12.853 27.425-7.222 6.487-22.883 13.897-35.383 16.743l-10.447 2.377.42 8.146.418 8.147 39.183.384 39.184.384v23.066h-184.974zm116.812-51.963c4.127-1.834 9.884-6.059 13.06-9.584 5.117-5.678 5.681-7.052 5.681-13.825 0-7.101-.381-7.897-6.84-14.265-8.427-8.31-16.783-11.496-32.887-12.54-9.93-.643-14.015-.224-22.007 2.26-17.286 5.37-27.567 17.81-24.312 29.418 2.532 9.033 14.717 18.288 28.86 21.922 1.553.399 9.178.538 16.944.31 10.929-.323 15.788-1.158 21.5-3.696zm-711.269 52.76c-4.271-5.065-7.766-9.655-7.766-10.202 0-.547 3.495-2.45 7.766-4.23 31.876-13.28 50.053-27.892 59.188-47.578 5.094-10.977 7.177-22.223 7.177-38.748v-12.736h30.744l.562 19.862c.55 19.43.675 20.1 5.75 30.697 6.669 13.925 14.186 22.696 26.919 31.409 8.464 5.791 28.77 15.894 39.55 19.678 2.184.766 1.268 2.387-6.124 10.834l-8.693 9.932-7.017-2.728c-10.58-4.113-29.187-13.948-37.919-20.043-4.271-2.982-12.422-10.353-18.113-16.38l-10.348-10.959-11.543 11.917c-13.13 13.554-27.02 22.966-47.5 32.187-7.793 3.509-14.327 6.361-14.518 6.338-.192-.023-3.843-4.186-8.115-9.25zm-426.408-1.75c-4.704-5.146-8.213-9.919-7.797-10.608.417-.688 3.131-2.04 6.032-3.004 18.71-6.213 44.698-22.675 52.65-33.35 12.13-16.284 15.46-26.867 15.46-49.118V332.76h32.156l.55 19.862c.543 19.656.605 19.979 5.991 31.09 9.448 19.489 24.775 32.589 51.624 44.123 8.18 3.514 15.401 6.883 16.045 7.486 1.568 1.468-14.322 18.78-17.238 18.78-3.425 0-33.872-14.644-41.896-20.15-3.844-2.638-12.39-10.217-18.991-16.843l-12.003-12.045-11.199 11.551c-15.152 15.63-29.092 24.662-54.11 35.062l-8.72 3.625zm758.567-62.99.37-53.81 13.767-.413 13.767-.414v108.445H982.96zm-135.89-.362v-48.392h104.49v21.668h-74.564l-.49 7.344c-.269 4.039-.224 7.614.1 7.945.323.33 17.32.601 37.77.601h37.184v21.668H877.093v14.446h83.309v23.112H847.44ZM37.82 251.718c-5.484-1.548-10.586-6.59-13.737-13.576-2.4-5.318-2.608-10.491-2.621-65.004-.011-45.694.429-60.93 1.926-66.682 9.79-37.618 43.731-60.068 80.757-53.415 34.97 6.283 58.51 35.136 58.453 71.647-.03 19.95-6.968 36.956-20.916 51.269-22.48 23.068-60.9 27.228-88.145 9.543-3.689-2.394-6.73-3.88-6.758-3.302-.028.579-.006 14.825.049 31.658.128 39.104-.17 40.357-9.007 37.862zm64.785-81.261c9.636-2.627 14.572-5.45 20.962-11.987 19.576-20.026 19.553-49.245-.054-68.98-18.928-19.051-47.254-17.669-65.576 3.2-22.68 25.834-10.347 68.343 22.514 77.602 8.717 2.456 13.616 2.492 22.154.165zm128.056 23.59c-13.367-3.582-22.4-8.703-31.651-17.943-21.828-21.801-27.177-57.601-12.91-86.404 5.071-10.238 20.35-25.388 30.772-30.514 4.602-2.263 13.656-5.049 20.121-6.19 23.12-4.082 44.756 2.89 61.194 19.72 14.658 15.006 21.162 30.776 21.162 51.308 0 19.62-7.164 37.766-20.202 51.175-9.455 9.723-19.214 15.343-32.83 18.906-13.513 3.536-22.302 3.522-35.656-.057zm35.366-25.648c9.538-4.316 19.22-14.109 23.881-24.152 3.36-7.242 4.022-10.533 4.023-20.017.001-9.641-.639-12.722-4.252-20.466-11.27-24.159-38.776-34.385-61.214-22.76-6.83 3.539-16.5 13.646-20.199 21.112-16.158 32.623 7.871 71.89 42.686 69.756 4.708-.288 11.491-1.851 15.075-3.473zm114.307 25.649c-13.364-3.582-23.062-9.037-32.136-18.076-11.208-11.163-16.83-24.98-11.084-27.237 8.143-3.196 19.254.653 29.11 10.085 17.64 16.88 41.488 18.733 60.725 4.719 5.995-4.367 12.42-13.995 12.42-18.61 0-7.57-1.401-7.843-44.339-8.65-36.374-.682-40.204-.995-46.03-3.76-12.848-6.097-17.846-15.017-16.558-29.549 1.834-20.693 23.53-42.678 48.237-48.878 8.806-2.21 26.618-2.214 35.58-.008 8.6 2.117 22.075 8.91 29.321 14.781 7.288 5.905 16.638 20.726 16.092 25.509-.367 3.214-1.173 3.704-6.77 4.12-9.311.69-16.456-2.056-23.911-9.19-3.636-3.478-10.068-7.972-14.295-9.984-14.188-6.757-34.949-3.893-47.654 6.574-9.659 7.957-14.637 21.198-9.098 24.2 1.359.736 20.58 1.788 42.713 2.337 22.134.55 42.634 1.622 45.556 2.384 6.956 1.814 14.568 8.773 16.648 15.221 7.92 24.55-18.19 57.642-51.194 64.885-12.068 2.648-21.076 2.412-33.333-.873zm153.64.882c-24.539-5.518-43.25-22.367-51.544-46.414-4.85-14.063-4.912-34.742-.147-48.554 6.31-18.286 20.727-34.399 37.571-41.988 3.495-1.574 11.596-3.805 18.003-4.958 10.148-1.825 13.164-1.828 23.404-.02 16.414 2.898 26.51 8.27 38.403 20.437 10.669 10.915 17.484 23.032 18.014 32.03.28 4.74-.12 5.401-3.9 6.468-2.482.7-6.51.556-9.8-.35-5.683-1.566-9.483-4.996-20.285-18.315-17.218-21.23-46.482-23.03-65.558-4.034-19.348 19.266-19.82 48.838-1.094 68.577 8.883 9.364 19.449 13.87 32.465 13.845 7.792-.015 12.335-.837 17.193-3.112 7.564-3.542 18.153-13.024 22.406-20.064 5.53-9.153 21.154-15.082 27.306-10.363 2.39 1.833 2.48 2.612.889 7.697-11.322 36.207-47.061 57.274-83.326 49.118zm154.28-.144c-49.912-11.094-71.465-72.989-40.12-115.213 21.894-29.49 65.25-36.433 96.065-15.38 10.96 7.487 17.486 15.304 23.6 28.273 20.055 42.54-3.78 92.693-48.679 102.43-11.432 2.478-19.346 2.45-30.866-.11zM723.98 166.7c9.812-4.942 16.968-12.414 22.006-22.978 2.595-5.443 3.193-9.133 3.193-19.698 0-10.566-.598-14.256-3.193-19.698-5.11-10.716-12.177-18.028-22.399-23.177-42.039-21.172-83.036 29.945-56.543 70.5 12.501 19.136 36.322 25.433 56.936 15.051z" style="fill:#05507d;fill-opacity:1;stroke-width:1.42818" transform="translate(-7.294 -51.644)"/></svg>